<!DOCTYPE svg PUBLIC "-//W3C//DTD SVG 1.1//EN" "http://www.w3.org/Graphics/SVG/1.1/DTD/svg11.dtd">
<!-- Uploaded to: SVG Repo, www.svgrepo.com, Transformed by: SVG Repo Mixer Tools -->
<svg width="150px" height="150px" viewBox="0 0 24 24" xmlns="http://www.w3.org/2000/svg" fill="#000000">
<g id="SVGRepo_bgCarrier" stroke-width="0"/>
<g id="SVGRepo_tracerCarrier" stroke-linecap="round" stroke-linejoin="round"/>
<g id="SVGRepo_iconCarrier"> <path fill="none" stroke="#000000" stroke-width="2" d="M15,15 L19,15 L22,22 L2,22 L5,15 L9,15 M13,8 C13,8.5525 12.5525,9 12,9 C11.4475,9 11,8.5525 11,8 C11,7.4475 11.4475,7 12,7 C12.5525,7 13,7.4475 13,8 M6,8 C6,13 12,18 12,18 C12,18 18,13 18,8 C18,4.58317221 15.3135725,2 12,2 C8.68642746,2 6,4.58317221 6,8 Z"/> </g>
</svg>